<?xml version="1.0" standalone="no"?>
<!DOCTYPE svg PUBLIC "-//W3C//DTD SVG 20010904//EN"
 "http://www.w3.org/TR/2001/REC-SVG-20010904/DTD/svg10.dtd">
<svg version="1.0" xmlns="http://www.w3.org/2000/svg"
 width="700.000000pt" height="700.000000pt" viewBox="0 0 700.000000 700.000000"
 preserveAspectRatio="xMidYMid meet">
<metadata>
Created by potrace 1.11, written by Peter Selinger 2001-2013
</metadata>
<g transform="translate(0.000000,700.000000) scale(0.100000,-0.100000)"
fill="#000000" stroke="none">
<path d="M3289 6886 c-2 -2 -47 -7 -99 -11 -52 -3 -97 -8 -100 -10 -3 -1 -36
-6 -75 -10 -38 -4 -72 -8 -75 -10 -3 -2 -26 -6 -50 -10 -83 -11 -374 -87 -490
-128 -283 -98 -563 -238 -800 -400 -50 -34 -232 -168 -240 -177 -3 -3 -36 -32
-75 -64 -193 -164 -508 -518 -600 -675 -5 -9 -33 -53 -61 -96 -238 -371 -425
-885 -479 -1315 -4 -30 -9 -63 -11 -73 -19 -105 -26 -540 -11 -707 57 -636
284 -1223 671 -1739 111 -149 160 -205 311 -357 408 -409 888 -693 1460 -864
171 -51 428 -98 639 -117 169 -16 566 -8 716 13 52 7 172 26 195 30 11 2 34 7
50 10 377 68 833 254 1185 483 258 167 545 420 725 636 27 33 52 62 55 65 20
17 124 160 197 270 23 36 46 70 51 75 36 45 194 353 251 490 127 305 217 670
248 1005 10 111 10 502 0 605 -45 455 -156 836 -358 1232 -48 95 -106 200
-128 234 -23 34 -41 63 -41 66 0 4 -56 88 -72 108 -5 6 -32 42 -61 82 -421
575 -1065 1023 -1766 1227 -207 60 -358 89 -626 121 -57 7 -530 17 -536 11z
m376 -532 c56 -14 104 -54 130 -109 24 -52 51 -186 50 -254 0 -34 -1 -35 -55
-45 -96 -20 -209 -90 -269 -169 -13 -16 -11 -16 21 -3 48 21 159 45 232 52
l62 6 52 -56 c29 -30 52 -62 52 -71 0 -8 -11 -37 -24 -63 -69 -140 -120 -358
-120 -512 1 -242 59 -404 194 -540 99 -100 199 -153 348 -183 12 -3 22 -4 22
-2 0 1 -26 18 -57 38 -152 94 -280 261 -335 437 -33 108 -33 293 1 400 84 271
231 441 462 533 65 26 83 31 173 46 51 9 225 7 264 -3 12 -3 30 -8 40 -10 339
-80 598 -419 586 -769 -10 -254 -139 -488 -348 -627 -46 -31 -52 -38 -46 -60
12 -42 12 -183 0 -233 -10 -46 -9 -49 28 -105 62 -94 79 -135 88 -222 l6 -60
-58 -2 c-33 0 -63 -2 -69 -3 -32 -5 -125 -38 -155 -56 l-35 -20 40 7 c287 46
476 -62 669 -383 42 -71 82 -105 178 -153 147 -74 199 -134 193 -223 -11 -161
-141 -219 -340 -152 -197 67 -450 241 -671 460 -164 164 -244 264 -352 444
l-20 34 -22 -43 c-132 -259 -433 -570 -761 -786 -73 -48 -98 -70 -103 -91 -19
-78 -120 -291 -231 -483 -168 -290 -400 -613 -628 -874 -96 -109 -294 -305
-377 -371 -41 -33 -76 -63 -78 -67 -2 -5 -7 -8 -12 -8 -5 0 -35 -17 -67 -38
-76 -50 -149 -80 -212 -88 -43 -5 -60 -2 -104 20 -160 79 -140 266 56 540 56
79 168 216 233 287 l43 47 16 -52 c18 -56 106 -226 116 -226 4 0 0 21 -8 47
-20 66 -23 249 -7 363 32 219 143 505 300 775 25 44 58 103 74 130 57 103 66
115 92 126 28 11 118 91 118 105 0 4 7 15 15 24 23 26 46 129 46 215 2 179
-62 374 -174 540 -22 33 -47 66 -54 73 -7 7 -13 16 -13 20 -1 4 -28 36 -61 72
l-60 65 34 -65 c78 -147 98 -259 92 -530 -2 -113 -6 -221 -9 -240 -13 -76 -39
-160 -53 -172 -8 -7 -48 -13 -87 -15 -78 -2 -236 -34 -441 -87 -104 -27 -122
-35 -90 -36 39 -2 111 -24 149 -46 18 -11 18 -12 0 -40 -110 -170 -416 -393
-579 -421 -127 -22 -217 44 -216 159 1 95 30 156 120 250 63 67 69 76 57 94
-38 56 -41 202 -7 304 38 110 122 238 238 362 167 181 436 380 632 469 72 33
73 34 189 188 64 85 126 166 137 180 109 145 347 382 455 454 47 32 120 84
162 116 l76 59 -28 54 c-88 166 -174 444 -205 658 -4 25 -9 58 -11 75 -10 61
-12 262 -3 323 10 72 25 104 68 149 66 70 149 92 246 67z"/>
<path d="M4454 5611 c-75 -25 -141 -67 -213 -135 -191 -183 -254 -383 -190
-601 38 -127 93 -213 207 -322 126 -121 242 -165 412 -158 266 10 523 201 599
445 33 105 10 228 -62 332 -81 118 -331 345 -442 401 -103 52 -223 66 -311 38z
m489 -490 c34 -13 74 -57 102 -112 54 -104 -2 -188 -128 -191 -75 -1 -127 25
-155 79 -31 57 4 156 71 204 42 30 69 35 110 20z"/>
<path d="M3568 4517 c-66 -61 -32 -161 59 -171 87 -10 136 94 77 163 -34 40
-97 44 -136 8z"/>
<path d="M3393 4323 c-30 -6 -73 -59 -73 -89 0 -79 78 -126 149 -89 61 31 64
116 7 160 -33 25 -40 26 -83 18z"/>
<path d="M3820 4287 c-38 -8 -59 -23 -137 -101 -97 -97 -113 -123 -113 -185 0
-56 20 -87 122 -188 97 -96 125 -113 186 -113 51 1 69 13 169 110 152 150 153
206 1 362 -110 113 -147 132 -228 115z"/>
</g>
</svg>
