<?xml version="1.0" standalone="no"?>
<!DOCTYPE svg PUBLIC "-//W3C//DTD SVG 20010904//EN"
 "http://www.w3.org/TR/2001/REC-SVG-20010904/DTD/svg10.dtd">
<svg version="1.0" xmlns="http://www.w3.org/2000/svg"
 width="667.000000pt" height="667.000000pt" viewBox="0 0 667.000000 667.000000"
 preserveAspectRatio="xMidYMid meet">
<metadata>
Created by potrace 1.11, written by Peter Selinger 2001-2013
</metadata>
<g transform="translate(0.000000,667.000000) scale(0.100000,-0.100000)"
fill="#000000" stroke="none">
<path d="M5170 5634 c-314 -39 -508 -93 -717 -204 -246 -129 -465 -336 -620
-585 -200 -320 -323 -749 -364 -1269 -17 -222 -6 -727 20 -925 98 -719 352
-1220 781 -1538 498 -368 1318 -427 1925 -139 134 64 221 117 343 208 l92 69
0 1075 0 1074 -720 0 -720 0 0 -390 0 -390 315 0 315 0 -2 -447 -3 -448 -63
-31 c-94 -47 -165 -59 -352 -59 -140 0 -177 4 -243 23 -381 109 -612 450 -697
1029 -59 410 -41 954 44 1290 119 470 363 737 741 809 115 21 319 22 441 0
252 -44 453 -153 657 -357 66 -66 121 -119 123 -119 2 0 4 229 4 510 l0 509
-72 42 c-196 115 -424 197 -678 245 -82 16 -466 28 -550 18z"/>
<path d="M840 5150 l0 -410 565 0 565 0 0 -1212 c0 -755 -4 -1247 -10 -1303
-39 -341 -183 -516 -475 -576 -136 -28 -359 -22 -515 14 -296 69 -581 233
-837 481 l-53 50 0 -541 0 -541 118 -51 c439 -194 868 -284 1272 -267 950 41
1354 425 1420 1351 6 84 10 794 10 1778 l0 1637 -1030 0 -1030 0 0 -410z"/>
</g>
</svg>
