<?xml version="1.0" standalone="no"?>
<!DOCTYPE svg PUBLIC "-//W3C//DTD SVG 20010904//EN"
 "http://www.w3.org/TR/2001/REC-SVG-20010904/DTD/svg10.dtd">
<svg version="1.0" xmlns="http://www.w3.org/2000/svg"
 width="1024.000000pt" height="1024.000000pt" viewBox="0 0 1024.000000 1024.000000"
 preserveAspectRatio="xMidYMid meet">
<metadata>
Created by potrace 1.11, written by Peter Selinger 2001-2013
</metadata>
<g transform="translate(0.000000,1024.000000) scale(0.100000,-0.100000)"
fill="#000000" stroke="none">
<path d="M5047 10084 c-4 -4 -51 -8 -104 -9 -101 -3 -254 -12 -333 -21 -25 -3
-52 -5 -60 -5 -8 -1 -22 -3 -30 -6 -8 -3 -36 -7 -62 -9 -26 -2 -60 -6 -75 -9
-15 -3 -44 -8 -63 -11 -19 -2 -46 -7 -60 -10 -14 -3 -36 -7 -50 -9 -57 -9 -95
-17 -219 -45 -72 -17 -141 -34 -153 -39 -13 -5 -25 -8 -28 -8 -10 0 -129 -36
-250 -76 -69 -22 -132 -42 -140 -43 -8 -2 -16 -8 -18 -14 -2 -5 -8 -8 -12 -5
-5 3 -17 1 -27 -4 -40 -21 -92 -41 -107 -41 -9 0 -16 -4 -16 -8 0 -5 -6 -9
-12 -9 -13 0 -30 -7 -186 -79 -41 -19 -78 -34 -83 -34 -5 0 -9 -4 -9 -10 0 -5
-6 -10 -12 -10 -7 0 -24 -6 -38 -13 -134 -70 -246 -131 -250 -136 -3 -3 -25
-17 -50 -30 -25 -13 -89 -53 -143 -88 -53 -34 -102 -63 -107 -63 -6 0 -10 -4
-10 -10 0 -5 -15 -17 -32 -26 -18 -9 -35 -20 -38 -23 -3 -4 -36 -28 -73 -55
-73 -51 -221 -167 -281 -221 -13 -11 -49 -42 -82 -70 -143 -122 -478 -473
-584 -615 -14 -18 -32 -41 -40 -50 -37 -45 -47 -58 -80 -105 -19 -27 -39 -54
-43 -60 -42 -55 -87 -120 -87 -125 0 -4 -11 -20 -24 -35 -14 -16 -23 -32 -20
-36 2 -4 0 -9 -4 -11 -11 -4 -82 -115 -82 -128 0 -6 -4 -10 -9 -10 -5 0 -11
-8 -14 -17 -4 -10 -18 -38 -33 -63 -38 -64 -165 -303 -169 -320 -1 -3 -16 -36
-34 -75 -18 -38 -44 -97 -57 -130 -14 -33 -31 -73 -38 -90 -7 -16 -23 -57 -36
-90 -12 -33 -26 -69 -30 -80 -20 -47 -65 -191 -64 -202 1 -7 -1 -13 -5 -13 -4
0 -8 -6 -9 -12 0 -7 -6 -31 -12 -53 -6 -22 -12 -44 -13 -50 -1 -5 -6 -16 -10
-22 -5 -7 -6 -13 -3 -13 3 0 1 -12 -5 -27 -6 -16 -13 -41 -16 -58 -7 -41 -11
-60 -13 -60 -2 0 -2 -3 -15 -60 -3 -16 -7 -34 -9 -40 -3 -11 -15 -68 -21 -100
-2 -11 -4 -20 -5 -20 -1 0 -3 -11 -5 -25 -2 -14 -10 -66 -18 -115 -9 -50 -18
-115 -22 -145 -4 -30 -10 -84 -15 -120 -4 -36 -8 -72 -8 -80 0 -8 -4 -55 -8
-105 -19 -207 -8 -718 20 -930 3 -22 8 -62 12 -90 6 -55 11 -88 19 -125 3 -14
7 -41 9 -60 3 -19 7 -46 10 -60 3 -14 12 -59 21 -100 8 -41 17 -79 18 -85 2
-5 7 -28 11 -50 4 -22 10 -47 13 -55 4 -8 5 -19 4 -24 -1 -6 2 -19 7 -30 6
-12 22 -66 37 -121 29 -106 84 -273 129 -390 48 -124 170 -400 178 -403 4 -2
6 -8 2 -13 -3 -5 0 -9 7 -9 7 0 10 -2 7 -5 -3 -3 7 -29 23 -58 15 -29 39 -74
53 -102 14 -27 39 -72 56 -100 16 -27 40 -69 52 -92 12 -24 26 -43 30 -43 4 0
8 -5 8 -11 0 -7 16 -34 35 -60 19 -27 35 -52 35 -57 0 -4 11 -20 25 -36 14
-16 25 -32 25 -36 0 -4 11 -20 25 -36 14 -16 25 -32 25 -36 0 -5 7 -16 16 -25
8 -10 32 -41 52 -69 113 -156 300 -372 467 -539 145 -144 169 -167 301 -281
83 -73 258 -209 329 -257 33 -22 62 -44 65 -47 9 -12 303 -197 375 -235 39
-21 73 -42 76 -47 3 -5 16 -10 29 -13 12 -2 30 -11 39 -18 9 -8 32 -20 51 -27
19 -7 42 -19 50 -25 8 -6 85 -42 170 -79 85 -38 163 -72 174 -78 10 -5 27 -11
37 -13 16 -3 41 -13 114 -46 11 -5 29 -10 40 -12 11 -1 27 -7 35 -12 8 -5 20
-10 25 -10 6 -1 17 -4 25 -8 41 -18 414 -122 475 -133 11 -1 49 -10 85 -18 59
-13 108 -22 165 -31 11 -2 34 -6 50 -9 17 -3 50 -9 75 -12 52 -6 93 -12 135
-18 40 -6 167 -18 235 -22 30 -1 55 -3 55 -4 0 -1 52 -3 116 -4 64 -2 120 -6
125 -9 6 -3 16 -2 24 3 9 5 19 5 27 -1 8 -7 18 -7 32 1 15 8 21 8 21 0 0 -6 5
-8 12 -4 7 5 65 9 128 10 191 4 392 22 417 37 6 4 14 3 18 -3 4 -6 11 -7 17
-4 6 4 25 9 42 10 92 11 306 50 431 79 55 13 111 26 125 29 14 2 46 11 73 19
26 8 47 13 47 10 0 -3 6 -1 13 5 6 5 28 13 47 18 19 4 40 9 45 10 59 15 485
172 495 184 3 3 12 6 20 8 14 3 276 127 330 156 88 47 153 84 209 118 34 21
64 38 66 38 4 0 114 72 225 147 75 51 277 199 290 213 3 3 28 23 55 44 28 22
59 49 71 60 11 12 40 37 64 56 57 46 382 370 441 440 26 30 63 75 83 100 21
25 49 59 63 75 53 62 218 289 215 297 -1 4 2 8 7 8 8 0 89 122 91 138 1 4 8
11 16 15 8 5 12 12 9 18 -4 5 -1 9 4 9 6 0 11 7 11 15 0 8 5 15 10 15 6 0 10
7 10 15 0 8 5 15 10 15 6 0 9 3 8 8 -1 4 23 50 54 102 76 130 214 406 210 423
-1 4 2 7 8 7 5 0 10 9 10 20 0 11 4 20 8 20 5 0 9 6 9 13 0 6 7 28 16 47 36
77 137 353 137 373 0 4 6 20 14 36 9 16 18 43 21 61 3 19 8 37 11 42 3 4 7 18
9 29 4 22 22 82 32 109 3 8 7 22 8 30 3 21 11 57 25 115 7 28 14 59 15 70 2
11 4 20 5 20 2 0 8 26 15 70 6 38 9 60 20 115 13 67 21 117 30 185 3 28 8 68
11 90 3 22 7 60 9 85 2 25 7 86 12 135 9 108 9 599 0 705 -4 41 -9 102 -11
135 -3 33 -7 74 -10 90 -3 17 -8 56 -11 87 -3 32 -10 82 -16 110 -5 29 -12 69
-15 88 -10 64 -40 210 -48 238 -3 9 -7 28 -10 42 -2 14 -9 45 -15 70 -7 25
-14 56 -17 69 -3 14 -7 28 -10 33 -3 5 -7 19 -10 33 -12 67 -136 427 -179 522
-8 17 -15 34 -15 39 0 4 -14 37 -31 73 -30 64 -51 111 -54 121 -3 14 -140 278
-161 311 -13 21 -24 43 -24 49 0 5 -4 10 -10 10 -5 0 -10 4 -10 10 0 13 -100
180 -122 204 -10 11 -18 24 -18 29 0 11 -69 108 -85 119 -5 4 -7 8 -3 8 4 0 1
8 -6 18 -8 9 -49 63 -91 120 -43 56 -81 102 -86 102 -5 0 -8 4 -6 9 2 9 -28
48 -166 206 -97 111 -468 475 -486 475 -3 0 -24 17 -46 38 -53 49 -260 208
-351 270 -78 52 -295 192 -298 192 -3 0 -29 14 -58 31 -96 58 -388 209 -402
209 -3 0 -36 14 -73 31 -37 17 -78 35 -90 40 -13 5 -33 13 -45 19 -22 9 -77
31 -88 35 -3 1 -12 5 -20 8 -18 7 -189 66 -210 72 -8 3 -60 18 -115 36 -55 17
-111 33 -124 35 -14 3 -27 7 -31 9 -10 6 -243 59 -305 70 -46 8 -77 13 -110
20 -41 9 -74 15 -115 20 -19 2 -55 7 -80 10 -80 10 -134 16 -175 20 -22 2 -40
4 -40 5 0 4 -165 12 -277 13 -71 1 -128 6 -128 10 0 5 -6 5 -12 1 -16 -10 -81
-11 -89 -1 -3 4 -8 4 -12 1z m293 -1938 c14 -3 45 -9 70 -12 25 -3 81 -15 125
-26 44 -11 87 -21 95 -23 30 -6 206 -76 228 -91 12 -8 22 -13 22 -10 0 4 66
-31 156 -83 69 -39 198 -137 268 -201 72 -67 172 -174 196 -210 8 -12 27 -36
42 -54 15 -17 28 -36 28 -43 0 -6 4 -13 8 -15 13 -5 118 -187 127 -218 0 -3
10 -23 22 -45 11 -22 26 -58 33 -80 7 -22 17 -45 21 -51 5 -6 10 -23 11 -38 1
-14 6 -26 10 -26 4 0 7 -8 6 -17 0 -10 5 -32 10 -50 6 -17 8 -34 4 -37 -3 -3
0 -6 7 -6 7 0 9 -4 6 -10 -3 -5 -3 -16 2 -22 4 -7 8 -18 9 -25 19 -121 26
-192 29 -263 2 -36 4 -65 5 -65 1 0 3 -10 4 -22 2 -13 0 -23 -3 -23 -4 0 -6
-36 -6 -81 0 -44 -3 -83 -6 -85 -4 -2 -5 -15 -4 -29 2 -14 0 -25 -3 -25 -4 0
-8 -19 -10 -43 -4 -75 -7 -92 -16 -98 -5 -4 -8 -18 -8 -33 0 -14 -5 -26 -10
-26 -5 0 -7 -4 -4 -9 5 -8 -32 -137 -53 -186 -5 -11 -17 -38 -26 -60 -33 -77
-68 -145 -76 -151 -5 -3 -7 -10 -4 -15 4 -5 2 -9 -2 -9 -5 0 -17 -17 -28 -37
-20 -38 -83 -133 -94 -143 -3 -3 -19 -23 -36 -45 -16 -21 -36 -47 -45 -55 -8
-9 -36 -39 -61 -66 -63 -66 -126 -124 -174 -159 -22 -17 -45 -34 -51 -40 -30
-26 -55 -45 -59 -45 -3 0 -35 -20 -73 -44 -38 -24 -79 -47 -93 -51 -13 -4 -26
-11 -29 -14 -6 -7 -144 -72 -163 -75 -15 -4 -43 -14 -77 -28 -14 -6 -32 -12
-40 -13 -8 -1 -41 -9 -73 -19 -32 -9 -75 -19 -95 -21 -20 -3 -48 -7 -62 -10
-121 -26 -438 -27 -560 0 -14 3 -40 7 -59 10 -19 2 -57 11 -85 19 -28 8 -62
17 -76 20 -14 2 -62 18 -107 36 -45 17 -84 30 -85 28 -2 -1 -17 7 -34 19 -17
12 -34 20 -38 16 -3 -3 -6 -1 -6 5 0 7 -3 11 -7 10 -12 -4 -73 26 -73 34 0 5
-4 8 -10 8 -26 0 -242 151 -306 214 -17 17 -44 43 -60 57 -37 33 -134 140
-154 169 -14 20 -36 49 -60 77 -5 7 -10 16 -10 22 0 5 -4 11 -8 13 -13 5 -118
187 -127 218 0 3 -10 23 -22 45 -11 22 -26 58 -33 80 -7 22 -17 45 -21 51 -5
6 -10 23 -11 38 -1 14 -6 26 -10 26 -4 0 -7 8 -6 18 0 9 -5 31 -10 49 -6 17
-8 34 -4 37 3 3 0 6 -7 6 -7 0 -9 5 -6 10 3 6 3 16 -2 23 -4 6 -8 17 -9 24
-19 121 -26 192 -29 263 -2 36 -4 65 -5 65 -1 0 -3 10 -4 23 -2 12 0 22 3 22
4 0 6 36 6 81 0 44 3 83 6 85 4 2 5 15 4 29 -2 14 0 25 3 25 4 0 7 20 7 45 -1
25 2 45 5 45 4 0 7 6 7 13 1 30 45 194 65 246 6 14 14 35 18 46 33 86 90 204
101 211 5 3 7 10 4 15 -4 5 -2 9 2 9 5 0 17 17 28 38 23 43 48 81 90 137 43
58 47 62 80 99 104 115 112 123 238 231 32 27 126 94 157 111 19 10 37 21 40
24 16 16 163 90 179 90 6 0 11 5 11 12 0 6 3 8 7 5 3 -4 11 -3 17 2 23 17 250
90 303 96 12 2 25 5 30 8 4 3 31 8 58 11 28 4 73 10 100 14 56 9 376 7 415 -2z
m-1137 -4311 c29 -2 77 -11 107 -19 30 -9 62 -18 71 -20 9 -2 47 -13 85 -24
38 -12 83 -23 99 -25 17 -3 53 -10 80 -17 28 -6 66 -14 85 -16 19 -2 76 -10
125 -18 124 -18 449 -14 590 8 61 9 122 18 137 20 15 2 30 6 35 9 4 3 24 8 43
11 19 3 69 15 110 27 41 11 82 22 90 24 8 2 27 8 43 14 15 6 27 8 27 5 0 -2 9
0 20 6 11 6 44 13 73 15 28 2 54 5 57 6 3 1 10 0 15 -1 6 -1 53 -4 105 -6 52
-2 109 -6 125 -8 17 -3 55 -7 85 -11 30 -4 59 -10 64 -15 5 -5 14 -6 21 -4 36
14 411 -107 539 -174 28 -14 53 -26 56 -27 3 0 23 -11 45 -24 22 -14 42 -25
45 -26 16 -2 100 -59 100 -67 0 -5 4 -7 8 -4 8 4 162 -107 232 -169 64 -55
216 -209 261 -264 24 -29 50 -59 57 -67 6 -7 12 -17 12 -23 0 -6 3 -11 8 -11
4 0 23 -25 42 -55 19 -30 38 -55 43 -55 4 0 7 -5 7 -11 0 -6 8 -23 19 -37 10
-15 32 -52 49 -84 l31 -56 -57 -64 c-111 -124 -304 -311 -425 -411 -34 -28
-63 -55 -65 -59 -2 -4 -10 -8 -18 -8 -8 0 -14 -3 -14 -7 0 -5 -38 -35 -85 -67
-47 -33 -85 -64 -85 -68 0 -4 -6 -8 -14 -8 -8 0 -21 -6 -28 -12 -17 -17 -156
-108 -164 -108 -3 0 -19 -9 -35 -21 -16 -11 -29 -18 -29 -14 0 3 -10 -3 -22
-14 -11 -11 -25 -18 -29 -15 -4 2 -11 -1 -15 -7 -3 -6 -23 -19 -43 -28 -20 -9
-65 -32 -101 -51 -36 -19 -67 -35 -70 -35 -3 -1 -27 -12 -55 -24 -78 -36 -316
-131 -334 -134 -9 -1 -20 -5 -26 -8 -5 -4 -23 -10 -40 -14 -45 -12 -45 -12
-47 -15 -2 -1 -10 -3 -18 -5 -8 -2 -54 -15 -102 -29 -49 -13 -88 -22 -88 -20
0 3 -6 2 -12 -3 -7 -4 -16 -8 -20 -9 -5 -1 -9 -3 -10 -4 -2 -2 -16 -4 -33 -6
-29 -3 -70 -11 -70 -14 0 -2 -24 -7 -70 -14 -23 -4 -50 -8 -60 -10 -25 -4
-115 -18 -135 -21 -181 -23 -189 -24 -406 -29 -105 -3 -195 -6 -200 -7 -5 -1
-11 0 -14 1 -3 1 -30 3 -60 5 -88 4 -232 15 -265 20 -53 8 -105 15 -153 20
-26 3 -55 8 -65 11 -10 3 -30 7 -45 9 -15 3 -38 7 -52 10 -14 4 -36 8 -50 10
-14 2 -26 3 -27 4 -2 1 -5 1 -8 2 -2 0 -19 5 -37 10 -18 6 -44 12 -58 15 -14
3 -34 8 -45 11 -22 7 -27 9 -67 16 -14 3 -35 10 -46 16 -11 6 -22 7 -26 4 -3
-3 -6 -1 -6 6 0 7 -4 10 -8 7 -8 -5 -161 44 -219 70 -18 8 -52 21 -75 30 -102
35 -372 168 -515 252 -131 78 -343 221 -343 233 0 5 -11 11 -25 15 -14 3 -25
10 -25 15 0 5 -7 12 -16 16 -9 3 -26 15 -38 27 -12 12 -39 35 -60 51 -21 17
-56 46 -79 65 -51 43 -284 275 -355 353 l-52 57 31 58 c134 241 379 524 599
688 96 71 160 114 170 114 6 0 10 4 10 8 0 5 12 14 28 21 15 7 38 20 52 29 14
9 27 17 30 17 13 3 86 41 91 48 3 5 8 8 10 6 2 -1 30 10 62 25 32 14 61 26 65
26 4 0 19 6 34 14 15 8 42 17 60 21 18 4 38 11 43 15 9 6 104 34 156 46 10 2
29 6 42 9 12 3 33 8 47 10 14 2 36 6 50 9 14 3 41 8 60 10 19 3 53 8 75 11 22
3 80 7 128 9 49 2 91 7 94 10 3 3 10 3 15 0 5 -3 33 -7 61 -9z"/>
</g>
</svg>
