<?xml version="1.0" standalone="no"?>
<!DOCTYPE svg PUBLIC "-//W3C//DTD SVG 20010904//EN"
 "http://www.w3.org/TR/2001/REC-SVG-20010904/DTD/svg10.dtd">
<svg version="1.0" xmlns="http://www.w3.org/2000/svg"
 width="1024.000000pt" height="1024.000000pt" viewBox="0 0 1024.000000 1024.000000"
 preserveAspectRatio="xMidYMid meet">
<metadata>
Created by potrace 1.11, written by Peter Selinger 2001-2013
</metadata>
<g transform="translate(0.000000,1024.000000) scale(0.100000,-0.100000)"
fill="#000000" stroke="none">
<path d="M4776 10230 c-229 -26 -525 -96 -751 -179 -775 -282 -1411 -857
-1786 -1613 l-54 -108 -131 0 c-213 0 -289 -24 -374 -117 -91 -99 -85 -18 -85
-1173 0 -1155 -6 -1074 85 -1173 85 -93 162 -117 380 -117 l125 0 54 -107
c344 -695 912 -1241 1605 -1542 211 -92 509 -183 721 -220 318 -56 792 -56
1110 0 110 19 369 87 486 128 800 277 1456 859 1840 1634 l54 107 125 0 c218
0 295 24 380 117 91 99 85 18 85 1173 0 1155 6 1074 -85 1173 -85 93 -161 117
-374 117 l-131 0 -54 108 c-157 317 -346 583 -591 836 -487 500 -1074 807
-1780 931 -143 26 -180 28 -465 31 -170 1 -346 -2 -389 -6z m1985 -1936 c294
-50 565 -237 676 -467 70 -144 68 -128 68 -597 0 -455 -1 -466 -55 -675 -184
-706 -753 -1243 -1472 -1390 -176 -35 -353 -45 -858 -45 -505 0 -682 10 -858
45 -719 147 -1288 684 -1472 1390 -54 209 -55 220 -55 675 0 391 2 429 19 480
86 251 272 434 545 536 173 65 99 62 1812 63 1382 1 1566 -1 1650 -15z"/>
<path d="M4034 7643 l-119 -358 -358 -119 c-196 -66 -357 -122 -357 -126 0 -4
161 -60 358 -126 l357 -119 120 -357 c65 -197 122 -358 125 -358 3 0 60 161
126 357 l119 358 358 119 c196 66 357 123 357 126 0 4 -161 60 -357 126 l-358
119 -119 358 c-66 196 -123 357 -126 357 -3 0 -60 -161 -126 -357z"/>
<path d="M2890 3795 c-261 -44 -493 -117 -730 -232 -150 -72 -193 -95 -310
-172 -588 -384 -1009 -993 -1154 -1671 -45 -207 -56 -331 -56 -616 0 -199 4
-283 15 -339 78 -376 374 -672 750 -750 63 -13 200 -15 940 -15 l865 0 0 678
c0 755 1 759 67 892 52 105 170 222 273 272 145 72 55 68 1570 68 1515 0 1425
4 1570 -68 103 -50 221 -167 273 -272 66 -133 67 -137 67 -892 l0 -678 865 0
c740 0 877 2 940 15 376 78 672 374 750 750 21 104 21 558 0 722 -103 784
-536 1474 -1195 1904 -117 77 -160 100 -310 172 -242 117 -468 188 -735 232
l-149 25 -91 -54 c-480 -289 -961 -457 -1525 -533 -96 -13 -201 -17 -460 -17
-364 0 -449 7 -735 63 -440 86 -881 258 -1266 496 -40 25 -78 45 -84 44 -5 0
-71 -11 -145 -24z"/>
<path d="M4107 1279 c-72 -11 -131 -45 -186 -104 -87 -96 -85 -78 -89 -662
l-3 -513 330 0 331 0 0 473 c0 259 -4 498 -10 530 -30 183 -193 304 -373 276z"/>
<path d="M6030 1279 c-69 -10 -115 -33 -168 -83 -198 -185 -99 -513 168 -555
109 -17 212 20 290 106 79 87 103 208 64 325 -24 73 -119 168 -189 190 -67 21
-111 26 -165 17z"/>
</g>
</svg>
